<svg width="49" height="48" viewBox="0 0 49 48" fill="none" xmlns="http://www.w3.org/2000/svg">
<path d="M34.5 17C36.1569 17 37.5 15.6569 37.5 14C37.5 12.3431 36.1569 11 34.5 11C32.8431 11 31.5 12.3431 31.5 14C31.5 15.6569 32.8431 17 34.5 17Z" fill="white"/>
<path d="M32.5 6C38.02 6 42.5 10.48 42.5 16V32C42.5 37.52 38.02 42 32.5 42H16.5C10.98 42 6.5 37.52 6.5 32V16C6.5 10.48 10.98 6 16.5 6H24.5H32.5Z" stroke="white" stroke-width="3" stroke-linecap="round" stroke-linejoin="round"/>
<path d="M24.5 16C28.92 16 32.5 19.58 32.5 24C32.5 28.42 28.92 32 24.5 32C20.08 32 16.5 28.42 16.5 24C16.5 19.58 20.08 16 24.5 16Z" stroke="white" stroke-width="3" stroke-linecap="round" stroke-linejoin="round"/>
</svg>
