<svg width="49" height="48" viewBox="0 0 49 48" fill="none" xmlns="http://www.w3.org/2000/svg">
<path d="M4.5 24C4.5 12.96 13.46 4 24.5 4C35.54 4 44.5 12.96 44.5 24C44.5 35.04 35.54 44 24.5 44C13.46 44 4.5 35.04 4.5 24Z" stroke="white" stroke-width="3" stroke-linecap="round" stroke-linejoin="round"/>
<path d="M17.76 30.62C22.12 29.46 26.74 29.94 30.76 32" stroke="white" stroke-width="3" stroke-linecap="round" stroke-linejoin="round"/>
<path d="M15.5 24.14C17.7 23.4 20.06 23 22.5 23C26.54 23 30.34 24.1 33.6 26" stroke="white" stroke-width="3" stroke-linecap="round" stroke-linejoin="round"/>
<path d="M14.5 17.82C17.26 16.64 20.3 16 23.5 16C28.32 16 32.8 17.48 36.5 20" stroke="white" stroke-width="3" stroke-linecap="round" stroke-linejoin="round"/>
</svg>
