<svg width="114" height="101" viewBox="0 0 114 101" fill="none" xmlns="http://www.w3.org/2000/svg">
<path d="M66.9063 87.364C67.2215 88.5871 67.4637 89.8074 67.8535 90.9791C68.6645 93.4096 69.9871 95.5176 72.3228 96.7578C75.5226 98.4576 78.5991 97.8467 81.412 95.8544C82.7088 94.9353 83.7764 93.6936 84.9413 92.5933C85.1076 92.4363 85.2437 92.2436 85.4601 91.9881C85.9186 93.0871 86.3313 94.0989 86.7655 95.1037C87.3472 96.4495 88.0093 97.744 89.0782 98.7972C91.4555 101.142 94.6438 101.692 97.5484 100.075C102.741 97.1831 114 82.8955 114 82.8955C114 82.8955 104.227 92.9586 100.482 95.3477C98.7563 96.4495 96.9336 97.38 94.8702 97.694C93.4917 97.9038 92.3683 97.4057 91.4713 96.371C89.5941 94.206 88.9163 91.6627 89.2946 88.8754C89.9638 83.9502 91.2047 79.1406 92.748 74.4295C94.9676 67.6518 97.3721 60.9354 99.6863 54.1891C100.37 52.1968 101.078 50.213 101.237 48.0793C101.581 43.4481 99.9958 39.5633 96.6657 36.3807C93.5118 33.3665 89.6056 32.0092 85.3526 31.5069C84.3768 31.3913 83.3852 31.4012 82.3993 31.3884C82.1528 31.3856 81.8462 31.4541 81.6685 31.6068C80.9606 32.2105 80.2929 32.8613 79.6108 33.4935L79.6839 33.7975C81.0967 33.7975 82.5139 33.7204 83.9211 33.8146C86.6308 33.9944 89.243 34.6424 91.6833 35.8498C95.462 37.718 97.3062 40.9149 97.878 44.9638C98.4941 49.331 97.7547 53.5169 96.0968 57.5487C94.5406 61.335 92.8712 65.0743 91.2477 68.8335C91.146 69.069 91.0185 69.293 90.9425 69.4443C90.4095 68.0799 89.9982 66.6342 89.3089 65.3369C86.83 60.6743 82.127 59.3484 77.4943 61.9159C77.3353 62.0044 77.1705 62.0829 76.8051 62.2713C80.088 57.4174 81.4163 52.4223 79.4961 46.8919C77.5273 41.2203 73.1568 38.4772 67.5368 37.2499C67.5311 37.1642 67.5253 37.0772 67.5196 36.9915C69.2707 36.3593 71.016 35.7056 72.7785 35.1019C73.5724 34.8308 74.3877 34.5653 75.2145 34.4583C77.0057 34.2257 78.0188 32.9312 79.1379 31.651C78.4028 31.7552 77.6648 31.8337 76.934 31.965C67.9538 33.5777 59.9895 37.2827 53.3693 43.5951C51.1511 45.7102 49.1937 48.0993 47.1302 50.3757C45.5698 52.0969 44.3933 52.3695 42.2611 51.4418C41.7108 51.202 41.1706 50.938 40.639 50.6597C39.9927 50.3229 39.9455 50.1174 40.4527 49.5779C41.8828 48.0551 43.3172 46.5366 44.7802 45.0451C50.4991 39.2165 56.2624 33.4293 61.9426 27.565C64.5778 24.8448 66.4334 21.6322 67.1571 17.8772C68.0799 13.0976 67.0109 8.67475 64.3557 4.66293C62.7178 2.18676 60.1428 1.03931 57.3099 0.422763C52.4866 -0.629073 47.9585 0.37852 43.5708 2.37658C35.1121 6.22998 28.0635 11.9173 22.2873 19.1003C17.5056 25.046 13.0118 31.2214 8.40063 37.3041C7.43912 38.5714 0.794563 47.3986 0.794563 47.3986C0.794563 47.3986 19.9674 26.5345 26.4743 18.6893C28.8788 15.7907 30.8305 14.4577 33.6649 11.9387C38.1242 7.97686 43.2226 5.28233 49.1349 4.22907C51.0321 3.89082 52.9537 3.71528 54.8753 4.08064C58.5795 4.78567 60.6945 7.20332 61.8953 10.5915C63.6693 15.6023 62.9256 20.2507 59.8476 24.5565C56.1463 29.7343 51.8188 34.3512 47.1575 38.6742C43.9362 41.6627 40.7594 44.7012 37.551 47.704C36.8417 48.3676 36.0794 48.9785 35.2225 49.7163C35.0534 47.811 34.89 46.0813 34.7496 44.3487C34.5347 41.6984 34.3369 39.0453 34.1291 36.395C34.1119 36.1809 34.0747 35.9668 34.0403 35.7542C33.8941 34.8707 33.5029 34.1329 32.6116 33.8417C31.6358 33.522 30.7087 33.8061 30.0252 34.5097C29.7257 34.8165 29.5609 35.4345 29.6168 35.8755C30.5668 43.5052 31.5685 51.1292 32.54 58.7575C32.861 61.2765 33.1289 63.8012 33.4213 66.3245C33.4327 66.4201 33.4356 66.5157 33.4499 66.6099C33.5201 67.0595 33.7021 67.3877 34.2395 67.3378C34.774 67.2878 34.8198 66.8925 34.8098 66.4986C34.7654 64.8459 34.6995 63.1947 34.6479 61.5434C34.5877 59.6039 34.5132 57.6643 34.4874 55.7248C34.4702 54.3532 34.9717 53.918 36.3244 54.2262C38.4552 54.71 40.5659 55.2838 42.6838 55.8275C42.8644 55.8746 43.0306 55.9774 43.3028 56.0987C43.0406 56.4241 42.8042 56.7095 42.5792 57.0007C39.9154 60.4445 38.1485 64.2237 38.1872 68.6765C38.2059 70.823 39.0312 72.5556 40.8926 73.6888C43.8861 75.5127 46.901 77.2995 49.9187 79.0807C51.7529 80.1639 53.4911 81.3485 54.7363 83.121C56.7252 85.9511 56.9674 88.9168 55.3797 91.9981C53.8149 95.0337 51.2714 96.5094 47.8725 96.5979C45.1155 96.6707 42.6322 95.783 40.2378 94.5299C38.3706 93.5523 36.4806 92.6175 34.5261 91.7655C34.8184 92.0152 35.0964 92.285 35.4045 92.5133C39.4755 95.5475 43.7628 98.145 48.8039 99.2868C51.376 99.869 53.7748 99.4694 56.026 98.1536C58.5293 96.6907 62.6075 93.9633 64.7325 90.7208L66.9034 87.3612L66.9063 87.364ZM58.2513 47.0104C58.6482 43.969 61.229 41.854 64.3227 41.8468C66.1253 41.8582 67.7317 42.5347 69.146 43.5423C73.0808 46.3453 75.6931 50.0774 76.5013 54.8784C77.2908 59.5753 73.9478 62.6423 69.2635 61.6533C64.1794 60.5786 59.3962 55.6149 58.4577 50.3571C58.2613 49.261 58.1109 48.1007 58.2528 47.0104H58.2513ZM55.6777 44.4343C55.7437 44.4529 55.8081 44.4714 55.8741 44.49C54.1015 48.3048 53.8493 52.2795 54.5314 56.5497C52.6485 55.1553 50.3099 54.4874 48.4901 53.1401C50.7112 50.4185 53.4911 47.1131 55.6777 44.4343ZM61.1845 91.6984C61.8523 88.1704 61.2017 84.8622 59.8591 81.631C59.1784 79.9941 58.1009 78.6753 56.7467 77.5607C54.881 76.0251 52.776 74.879 50.6266 73.7958C49.1922 73.0722 47.7636 72.3258 46.3923 71.4909C44.4048 70.2806 42.9847 68.5894 42.6021 66.2346C42.2568 64.1123 42.8099 62.1228 43.919 60.3274C44.5423 59.3198 45.372 58.4336 46.163 57.5402C46.3436 57.3361 46.7863 57.1805 47.04 57.2504C50.1681 58.1124 53.1873 59.2185 55.4929 61.6405C57.8343 64.0995 59.1082 67.1137 59.6986 70.3877C60.7102 75.9922 61.6073 81.6182 62.533 87.2384C62.543 87.297 62.5516 87.3583 62.5602 87.4168C62.5759 87.3812 62.5903 87.3441 62.6075 87.307C62.9155 86.659 63.3168 86.0525 63.7051 85.4502C64.4531 84.2885 65.2699 83.0796 65.4433 81.6767C65.4433 81.6696 65.449 81.6653 65.449 81.6582C64.7168 75.8895 63.0216 70.3063 61.8423 64.5491C62.6662 64.7888 63.3712 64.9472 64.0418 65.1956C67.2115 66.3687 70.364 66.5371 73.6798 64.9872C73.4663 65.2869 73.3746 65.4311 73.2686 65.5624C70.1204 69.4272 68.3321 73.9014 67.3892 78.7367C67.1155 80.1368 66.7042 81.4826 66.1268 82.7899C65.8058 83.8203 64.2811 87.1885 63.6865 88.1119L61.1817 91.697L61.1845 91.6984ZM82.7317 90.4425C81.7344 91.8069 80.5064 92.9572 79.0147 93.7964C76.037 95.4719 73.2198 94.7026 71.5347 91.7298C70.2293 89.4292 69.9327 86.8945 69.8768 84.3099C69.8725 84.1429 69.8768 83.9745 69.8768 83.8061C70.2293 77.6563 71.9187 71.9861 75.9353 67.1665C77.053 65.8264 78.3842 64.7275 80.0321 64.0695C82.2603 63.1804 84.414 63.7598 85.8942 65.6494C87.2269 67.3506 87.8244 69.3515 88.0179 71.4438C88.6613 78.4284 86.8801 84.7751 82.7317 90.4425Z" fill="white"/>
</svg>
